HIERARCHY
ROOT hip
{
	OFFSET 0.000000 0.000000 0.000000 
	CHANNELS 6 Xposition Yposition Zposition Xrotation Zrotation Yrotation
	JOINT abdomen
	{
		OFFSET 0.000000 3.402643 0.000000 
		CHANNELS 3 Xrotation Zrotation Yrotation
		JOINT chest
		{
			OFFSET 0.000000 8.438565 -0.680529 
			CHANNELS 3 Xrotation Zrotation Yrotation
			JOINT neck
			{
				OFFSET 0.000000 10.207942 -0.272212 
				CHANNELS 3 Xrotation Zrotation Yrotation
				JOINT head
				{
					OFFSET 0.000000 3.130431 0.000000 
					CHANNELS 3 Xrotation Zrotation Yrotation
					End Site
					{
						OFFSET 0.000000 3.130435 0.000000 
					}
				}
			}
			JOINT lCollar
			{
				OFFSET 3.470700 6.669187 -0.816635 
				CHANNELS 3 Yrotation Zrotation Xrotation
				JOINT lShldr
				{
					OFFSET 3.198488 0.000000 0.000000 
					CHANNELS 3 Zrotation Yrotation Xrotation
					JOINT lForeArm
					{
						OFFSET 10.139888 0.000000 0.000000 
						CHANNELS 3 Yrotation Zrotation Xrotation
						JOINT lHand
						{
							OFFSET 8.370511 0.000000 0.000000 
							CHANNELS 3 Zrotation Yrotation Xrotation
							End Site
							{
								OFFSET 4.083176 0.000000 0.000000 
							}
						}
					}
				}
			}
			JOINT rCollar
			{
				OFFSET -3.470700 6.669187 -0.816635 
				CHANNELS 3 Yrotation Zrotation Xrotation
				JOINT rShldr
				{
					OFFSET -3.198488 0.000000 0.000000 
					CHANNELS 3 Zrotation Yrotation Xrotation
					JOINT rForeArm
					{
						OFFSET -10.139888 0.000000 0.000000 
						CHANNELS 3 Yrotation Zrotation Xrotation
						JOINT rHand
						{
							OFFSET -8.370511 0.000000 0.000000 
							CHANNELS 3 Zrotation Yrotation Xrotation
							End Site
							{
								OFFSET -4.083176 0.000000 0.000000 
							}
						}
					}
				}
			}
		}
	}
	JOINT lThigh
	{
		OFFSET 5.308129 -1.633274 1.361059 
		CHANNELS 3 Xrotation Zrotation Yrotation
		JOINT lShin
		{
			OFFSET -2.041588 -20.007561 0.000000 
			CHANNELS 3 Xrotation Zrotation Yrotation
			JOINT lFoot
			{
				OFFSET 0.000000 -19.190928 -1.224953 
				CHANNELS 3 Xrotation Yrotation Zrotation
				End Site
				{
					OFFSET 0.000000 -2.449906 4.627600 
				}
			}
		}
	}
	JOINT rThigh
	{
		OFFSET -5.308129 -1.633274 1.361059 
		CHANNELS 3 Xrotation Zrotation Yrotation
		JOINT rShin
		{
			OFFSET 2.041588 -20.007561 0.000000 
			CHANNELS 3 Xrotation Zrotation Yrotation
			JOINT rFoot
			{
				OFFSET 0.000000 -19.190928 -1.224953 
				CHANNELS 3 Xrotation Yrotation Zrotation
				End Site
				{
					OFFSET 0.000000 -2.449906 4.627600 
				}
			}
		}
	}
}
MOTION
Frames: 11
Frame Time: 0.016667
5.641296 50.240379 43.496479 -64.218750 -34.863285 68.383087 0.000000 0.000000 0.000000 29.492189 32.841797 13.911546 0.908203 14.042968 -2.175365 24.238281 28.242186 -1.152343 11.298827 -20.976563 6.083984 -48.925777 15.019531 30.451750 -86.357422 2.792969 0.878430 43.427734 -15.546875 9.667967 -0.546875 8.847670 2.185995 1.503906 0.312500 -44.003849 31.279299 -0.507813 3.212977 -45.224609 -0.312500 13.583930 -40.977520 65.854012 23.141108 17.196842 -3.309019 -2.167176 -6.004936 -3.900297 17.260263 -51.069828 -63.323570 -6.054380 14.281571 3.592194 1.279617 48.091976 3.339308 -1.004235 
5.234282 50.200993 43.801384 -61.621094 -37.460938 65.365158 0.000000 0.000000 0.000000 25.722656 27.363281 10.609958 1.269531 15.224609 -1.191406 25.839844 30.449219 1.904297 11.591798 -19.941406 5.774815 -48.994141 16.269531 29.065235 -85.214844 2.753906 0.830078 47.226563 -14.697266 5.661585 -1.455078 13.183594 3.298554 5.205078 3.339844 -46.249996 40.947266 -0.498047 3.535156 -48.085934 0.146484 14.287135 -43.252399 65.971001 19.630846 18.450956 -3.348641 -2.258430 -5.210688 -2.686652 13.179100 -44.420086 -59.836937 -9.231775 16.833921 3.434022 1.594083 47.214687 3.040515 -0.491182 
4.853528 50.167439 44.066887 -58.388672 -39.433594 62.210594 0.000000 0.000000 0.000000 22.763672 21.562502 6.865234 1.093750 16.113281 -0.007055 26.464844 31.562498 4.433594 12.031250 -18.232422 5.256961 -48.466793 16.113281 28.371851 -83.417969 2.705079 0.751492 50.839844 -13.681641 1.816407 -2.392578 16.972658 4.355468 9.892578 6.689453 -45.205086 52.011723 -0.419922 3.886791 -49.765625 1.240234 14.472657 -44.481186 65.294601 16.202387 18.995550 -3.330238 -2.117950 -4.267337 -1.615293 8.482480 -39.342163 -55.969254 -10.442554 19.529154 3.414095 1.806858 46.351849 2.990941 -0.305580 
4.499033 50.107628 44.307594 -55.019535 -40.820316 58.925785 0.000000 0.000000 0.000000 20.751953 16.494141 3.196132 0.732422 16.269497 0.940237 26.298826 31.757811 6.669922 12.646484 -16.357422 4.670720 -47.167969 14.755858 28.576706 -81.298828 2.597656 0.663620 53.720703 -12.382813 -1.281392 -3.183594 20.048828 5.302735 14.697266 9.326173 -41.033569 63.789063 -0.253906 4.248090 -50.068359 2.626953 14.824217 -45.302273 63.836670 12.625268 19.173935 -3.330219 -2.130003 -2.648292 -0.693729 4.049113 -34.754585 -51.363758 -10.116324 21.867149 3.309277 1.747217 47.020992 3.298796 -0.032334 
4.172255 49.993835 44.542465 -51.708984 -41.718750 55.917969 0.000000 0.000000 0.000000 19.433594 12.119141 0.031347 0.000000 16.220703 1.611328 25.146486 31.230469 8.051939 13.085938 -14.677733 4.091797 -45.302731 12.529297 29.523605 -78.984375 2.548828 0.742188 56.103516 -11.474608 -3.535156 -3.613281 22.441408 6.080256 18.935547 10.897881 -34.918869 75.732422 -0.068359 4.560547 -49.130859 4.121094 16.221407 -45.799057 62.574429 8.664398 19.350658 -3.339997 -2.143523 -0.860297 -0.356350 1.181548 -31.099203 -46.182545 -9.953515 24.000265 3.237659 2.075012 47.550037 3.066999 0.617131 
3.876112 49.798355 44.778790 -48.457031 -42.363281 52.620377 0.000000 0.000000 0.000000 18.662111 8.496095 -2.752464 -0.908203 15.800782 2.024143 23.359377 30.419924 8.930726 13.554688 -13.310548 3.732717 -42.880859 9.257812 30.830074 -76.738281 2.460938 0.830078 57.675785 -11.347656 -5.089812 -3.867188 24.667971 6.816406 21.933594 12.109374 -27.529297 87.158203 0.195313 4.814451 -47.500000 5.664063 18.662111 -46.381832 61.273136 4.274064 19.500906 -3.506297 -2.188705 0.633009 -0.287789 -1.045372 -27.762085 -40.377682 -9.437141 25.769844 3.315793 2.028366 48.394966 3.107650 2.659638 
3.612064 49.499294 45.012211 -45.078125 -42.509766 49.173088 0.000000 0.000000 0.000000 18.183592 5.341797 -4.746094 -2.001953 15.341797 2.277974 21.152344 29.267580 9.335938 13.857422 -12.304688 3.349610 -40.468750 5.986328 31.572269 -74.550781 2.363281 0.751953 59.130859 -11.923828 -5.597721 -4.121094 25.000000 7.427514 24.199219 13.505859 -19.755861 97.343750 0.439453 5.000000 -44.804688 7.128907 22.001953 -46.449383 59.251720 -0.233193 20.450504 -3.163581 -2.356211 2.270195 -0.201587 -2.311037 -24.774649 -34.597683 -9.762500 26.660830 3.065506 2.386643 49.623116 2.798471 5.682623 
3.385945 49.083530 45.229568 -41.562500 -42.363281 45.214844 0.000000 0.000000 0.000000 17.421877 2.675781 -6.190949 -3.085938 14.853514 2.382812 19.042967 28.408201 9.541017 13.994141 -11.445313 3.175766 -38.427738 2.880859 31.806862 -72.558594 2.265625 0.683594 60.263676 -12.890625 -5.578349 -4.580078 25.000000 7.954795 26.103516 15.097657 -11.442768 106.132813 0.683594 5.117070 -41.552734 8.291017 25.157656 -47.293705 57.274261 -5.297552 22.213818 -3.232795 -2.311761 3.507309 -0.301759 -2.695337 -22.321962 -28.980261 -9.933086 27.012268 3.140023 2.271390 50.736488 2.787505 9.475115 
3.200673 48.545219 45.416306 -37.861328 -41.767578 41.035156 0.000000 0.000000 0.000000 16.689453 0.000000 -7.031250 -3.984375 14.365233 2.548828 16.962891 27.509766 9.447869 13.603516 -10.781250 2.949219 -37.119137 0.107422 31.289093 -70.751953 2.158203 0.625000 61.181637 -13.339845 -5.244140 -4.824219 25.000000 8.286888 28.154297 16.884766 -3.141695 113.330078 0.947266 5.175781 -38.457031 9.257813 27.646482 -47.724174 55.106724 -9.561587 24.524652 -3.178206 -2.799520 4.473564 -0.734650 -2.829312 -19.997995 -23.814892 -10.948439 26.836374 3.140000 2.230186 51.953339 2.520111 13.539566 
3.050413 47.891663 45.565105 -33.857422 -40.751953 36.230465 0.000000 0.000000 0.000000 15.830078 -2.714844 -7.109893 -5.058593 14.023438 2.502367 14.921875 26.561529 9.418453 13.203124 -9.941405 2.675781 -36.533203 -2.148437 30.761717 -68.964844 2.080078 0.566052 61.689449 -13.125000 -4.667969 -4.853516 25.000000 8.515624 30.722658 18.535156 5.257010 118.427734 1.103516 5.204890 -36.445313 10.488281 29.230293 -48.151245 52.703125 -12.633549 27.896126 -2.998881 -2.989491 4.708025 -0.794916 -2.115636 -17.700956 -19.221422 -12.566897 26.668673 3.148678 2.210428 53.192249 2.568081 17.266085 
2.930790 47.143284 45.675972 -29.765627 -39.062496 31.201176 0.000000 0.000000 0.000000 14.658204 -5.615234 -6.582987 -6.132813 13.496094 2.482748 12.724610 25.771484 9.115573 12.636719 -9.111328 2.374593 -36.650387 -4.091797 30.555948 -67.724609 2.070313 0.703121 61.279297 -12.451172 -3.974610 -4.863281 25.000000 8.716505 33.291012 20.039063 13.164063 121.757805 1.201172 5.214844 -35.527340 12.148438 30.089947 -48.017567 50.170433 -13.987810 31.810814 -2.665103 -3.351576 4.076320 -0.957916 -0.510278 -15.594549 -15.388641 -14.290298 26.321140 3.143621 2.020603 53.996395 2.806143 19.384726 
